<svg width="21" height="17" xmlns="http://www.w3.org/2000/svg"><path d="M15.613 16.738c-.16-.086-1.277-.88-2.481-1.763-1.204-.883-2.243-1.605-2.31-1.605-.066 0-.69.539-1.384 1.197-.9.852-1.329 1.212-1.487 1.247-.123.026-.248.021-.28-.011-.031-.033.017-1.093.107-2.357.157-2.21.17-2.302.327-2.452.09-.085 1.995-1.796 4.233-3.802 2.239-2.006 4.144-3.726 4.234-3.823.148-.161.153-.187.052-.287-.09-.09-.149-.096-.32-.032-.114.043-2.621 1.59-5.57 3.436-2.948 1.847-5.4 3.358-5.447 3.358-.204 0-4.825-1.48-4.983-1.595-.236-.173-.352-.416-.286-.597.115-.313.622-.576 2.464-1.28 1.021-.39 3.325-1.272 5.12-1.961C19.024.028 19.099 0 19.429 0c.397 0 .681.244.801.688.1.365.155.07-1.225 6.538l-1.165 5.473c-.387 1.82-.753 3.43-.812 3.579-.24.598-.814.784-1.415.46Z"/></svg>