<?xml version="1.0" encoding="utf-8"?><svg viewBox="0 0 408 220" xmlns="http://www.w3.org/2000/svg" xmlns:xlink="http://www.w3.org/1999/xlink"><style>:root>svg{display:none}:root>svg:target{display:block}</style><svg fill="none" viewBox="0 0 33 28" id="burger" xmlns="http://www.w3.org/2000/svg"><rect width="33" height="2" rx="1" fill="#D9D9D9"/><rect y="13" width="33" height="2" rx="1" fill="#D9D9D9"/><rect y="26" width="33" height="2" rx="1" fill="#D9D9D9"/></svg><svg fill="none" viewBox="0 0 24 24" id="cart" xmlns="http://www.w3.org/2000/svg"><path d="M8 22a1 1 0 1 0 0-2 1 1 0 0 0 0 2Zm11 0a1 1 0 1 0 0-2 1 1 0 0 0 0 2ZM2.05 2.05h2l2.66 12.42a2 2 0 0 0 2 1.58h9.78a2 2 0 0 0 1.95-1.57l1.65-7.43H5.12" stroke="#fff" stroke-width="2" stroke-linecap="round" stroke-linejoin="round"/></svg><svg fill="none" viewBox="0 0 155 46" id="download" xmlns="http://www.w3.org/2000/svg"><rect x=".5" y=".5" width="154" height="45" rx="2.5" stroke="#5B5B5B"/><path d="M32.148 12.65h-18.37a2.294 2.294 0 0 0-2.296 2.3v11.5c0 1.265 1.033 2.3 2.296 2.3h8.898v4.025h-5.74a.86.86 0 0 0-.862.863.863.863 0 0 0 .861.862H30.14a.86.86 0 0 0 .861-.862.863.863 0 0 0-.861-.863H24.4V28.75h7.75a2.294 2.294 0 0 0 2.295-2.3v-11.5a2.302 2.302 0 0 0-2.296-2.3Z" fill="#428D26"/><path d="M16.59 22.425a.863.863 0 0 0 .693 1.352.86.86 0 0 0 .57-.202l-1.262-1.15Zm4.811-4.025.632-.575a.862.862 0 0 0-1.263 0l.631.575Zm3.123 3.45-.631.575a.861.861 0 0 0 1.263 0l-.631-.575Zm4.823-4.025a.863.863 0 0 0-.695-1.38.86.86 0 0 0-.58.23l1.263 1.15h.012Zm-11.482 5.75 4.168-4.6-1.263-1.15-4.18 4.6 1.264 1.15h.011Zm2.894-4.6 3.134 3.45 1.263-1.15-3.123-3.45-1.263 1.15h-.011Zm4.408 3.45 4.168-4.6-1.263-1.15-4.179 4.6 1.263 1.15h.011Z" fill="#101010"/><path d="M47.649 15.298c1.743 0 3.05-1.066 3.3-2.665v-.063h-1.22v.063c-.312 1.015-1.034 1.586-2.08 1.586-1.47 0-2.416-1.205-2.416-3.057 0-1.878.946-3.046 2.416-3.046 1.058 0 1.793.571 2.054 1.51l.025.114h1.233v-.05c-.249-1.6-1.569-2.69-3.3-2.69C45.42 7 44 8.599 44 11.149c0 2.563 1.42 4.174 3.661 4.174l-.012-.025Zm5.977-2.74 2.117 2.613h1.47l-2.529-3.109 2.429-2.753h-1.395l-2.092 2.41h-.2V9.31h-1.182v5.862h1.183v-2.614h.199Zm6.127 2.714c.76 0 1.42-.393 1.756-1.015h.025v.914h1.183v-4.048c0-1.167-.884-1.928-2.292-1.928-1.42 0-2.279.774-2.366 1.776v.064h1.121v-.051c.1-.47.523-.787 1.208-.787.735 0 1.146.38 1.146 1.028v.444l-1.57.089c-1.37.089-2.141.71-2.141 1.738 0 1.066.772 1.776 1.93 1.776Zm-.735-1.801c0-.508.399-.825 1.108-.863l1.408-.089v.457c0 .761-.623 1.332-1.457 1.332-.636 0-1.059-.317-1.059-.837Zm9.813 1.7V9.309h-1.17v2.41c-.25.255-.71.42-1.184.42-.81 0-1.245-.381-1.245-1.18v-1.65h-1.17v1.789c0 1.269.747 2.08 2.104 2.08.573 0 1.12-.19 1.457-.532h.037v2.525h1.17Zm3.2.101c.76 0 1.42-.393 1.756-1.015h.025v.914h1.183v-4.048c0-1.167-.884-1.928-2.291-1.928-1.42 0-2.28.774-2.366 1.776v.064h1.12v-.051c.1-.47.523-.787 1.208-.787.735 0 1.146.38 1.146 1.028v.444l-1.569.089c-1.37.089-2.142.71-2.142 1.738 0 1.066.772 1.776 1.93 1.776Zm-.734-1.801c0-.508.398-.825 1.108-.863l1.407-.089v.457c0 .761-.623 1.332-1.457 1.332-.635 0-1.058-.317-1.058-.837Zm9.464-4.162h-4.782v.952h1.793v4.91h1.183v-4.91h1.806v-.952Zm1.083 5.862h2.279c1.332 0 2.192-.787 2.192-2.03 0-1.244-.86-2.03-2.192-2.03h-1.096V9.32h-1.183v5.85Zm2.167-3.096c.672 0 1.096.419 1.096 1.066s-.424 1.078-1.096 1.078h-.984v-2.157h.984v.013ZM44.648 36.739h4.806c3.935 0 6.252-2.486 6.252-6.737v-.012c0-4.238-2.329-6.661-6.252-6.661h-4.806v13.41ZM47 34.71v-9.35h2.204c2.615 0 4.11 1.65 4.11 4.63v.026c0 3.045-1.457 4.694-4.11 4.694H47Zm14.234 2.22c2.515 0 3.947-1.522 4.234-3.044l.037-.09h-2.117l-.025.064c-.224.66-.959 1.269-2.092 1.269-1.47 0-2.403-1.015-2.44-2.753h6.761v-.736c0-2.969-1.706-4.948-4.483-4.948-2.752 0-4.533 2.03-4.533 5.138v.013c0 3.134 1.744 5.088 4.658 5.088Zm-.087-8.437c1.207 0 2.08.787 2.241 2.348h-4.533c.187-1.523 1.084-2.348 2.291-2.348Zm9.327 8.438c2.366 0 4.047-1.244 4.047-3.096v-.013c0-1.433-.772-2.233-2.765-2.69l-1.619-.355c-.996-.24-1.37-.609-1.37-1.18 0-.723.623-1.205 1.62-1.205 1.07 0 1.68.584 1.793 1.37v.076h2.117v-.101c-.087-1.7-1.495-3.045-3.898-3.045-2.341 0-3.885 1.205-3.885 3.02 0 1.459.934 2.385 2.79 2.79l1.606.381c.996.229 1.332.559 1.332 1.142v.026c0 .723-.66 1.18-1.768 1.18-1.146 0-1.781-.508-1.943-1.358l-.025-.076h-2.241l.012.076c.2 1.84 1.656 3.058 4.197 3.058Zm5.23-.19h2.266v-3.426l.772-.812 3.051 4.237h2.615l-3.985-5.607 3.836-4.238h-2.615L78.02 30.98h-.05v-7.65h-2.266v13.41Zm12.801.19c.461 0 .872-.038 1.121-.077v-1.738c-.15 0-.324.038-.548.038-.822 0-1.245-.304-1.245-1.268v-5.202h1.793v-1.79h-1.793v-2.498H85.53v2.499h-1.37v1.776h1.37v5.405c0 2.03.96 2.855 2.989 2.855h-.013Zm6.414 0c2.826 0 4.67-1.916 4.67-5.113v-.026c0-3.172-1.868-5.1-4.683-5.1-2.814 0-4.67 1.941-4.67 5.1v.026c0 3.184 1.83 5.113 4.683 5.113Zm0-1.865c-1.445 0-2.366-1.18-2.366-3.248v-.026c0-2.03.933-3.235 2.353-3.235 1.445 0 2.366 1.18 2.366 3.235v.026c0 2.055-.921 3.248-2.353 3.248Zm5.753 4.922h2.279V35.09h.037a3.273 3.273 0 0 0 1.249 1.387 3.19 3.19 0 0 0 1.79.465c2.415 0 3.972-1.94 3.972-5.1v-.013c0-3.172-1.557-5.125-4.01-5.125-1.37 0-2.441.723-2.988 1.903h-.05v-1.7h-2.279V40v-.013Zm4.645-4.998c-1.407 0-2.391-1.244-2.391-3.172 0-1.942.996-3.172 2.391-3.172 1.457 0 2.366 1.205 2.366 3.172 0 1.953-.909 3.172-2.366 3.172Z" fill="#fff"/></svg><svg viewBox="0 0 18 17" id="dzen" xmlns="http://www.w3.org/2000/svg"><g clip-path="url(#da)" fill-rule="evenodd" clip-rule="evenodd"><path d="M8.617 0C5.132 0 2.74 0 1.507 1.232.275 2.464.275 4.998.275 8.342c3.731-.105 5.456-.211 6.829-1.549C8.406 5.456 8.51 3.731 8.617 0Zm-7.11 15.664C.275 14.432.275 11.897.275 8.554c3.731.105 5.456.21 6.829 1.548 1.337 1.373 1.443 3.063 1.548 6.829-3.52-.035-5.913-.035-7.145-1.267Zm7.321 1.232c.106-3.731.212-5.456 1.55-6.829 1.372-1.338 3.061-1.443 6.828-1.549 0 3.38 0 5.878-1.232 7.146-1.267 1.232-3.661 1.232-7.146 1.232ZM8.828 0c.106 3.731.212 5.456 1.55 6.829 1.372 1.337 3.061 1.443 6.828 1.548 0-3.379 0-5.878-1.232-7.145C14.707 0 12.313 0 8.828 0Z"/></g><defs><clipPath id="da"><path transform="translate(.275)" d="M0 0h16.896v16.896H0z"/></clipPath></defs></svg><svg fill="none" viewBox="0 0 408 220" id="filler" xmlns="http://www.w3.org/2000/svg"><rect width="408" height="220" rx="6" fill="#D9D9D9"/><path opacity=".5" d="M241 138.778V81.222C241 76.7 237.3 73 232.778 73h-57.556C170.7 73 167 76.7 167 81.222v57.556c0 4.522 3.7 8.222 8.222 8.222h57.556c4.522 0 8.222-3.7 8.222-8.222Zm-51.389-22.611 10.278 12.374L214.278 110l18.5 24.667h-57.556l14.389-18.5Z" fill="#ABABAB"/></svg><svg viewBox="0 0 8 14" id="left" xmlns="http://www.w3.org/2000/svg"><path d="M7.715 12.2c.376.352.376.964.023 1.34a.942.942 0 0 1-.682.282c-.235 0-.47-.094-.658-.258L.282 7.684A.942.942 0 0 1 0 7c0-.258.094-.493.282-.682L6.398.44a.959.959 0 0 1 1.34.024.959.959 0 0 1-.023 1.34l-5.41 5.198 5.41 5.199Z"/></svg><svg fill="none" viewBox="0 0 192 33" id="logo" xmlns="http://www.w3.org/2000/svg"><path d="M187.431 19.717h4.539c-.091 1.488-.501 2.808-1.23 3.962-.718 1.154-1.725 2.055-3.021 2.702-1.285.648-2.834.972-4.645.972-1.417 0-2.687-.243-3.811-.729a8.106 8.106 0 0 1-2.884-2.125c-.79-.921-1.392-2.034-1.807-3.34-.415-1.305-.622-2.768-.622-4.387v-1.533c0-1.62.212-3.082.637-4.388.436-1.316 1.053-2.434 1.853-3.355a8.25 8.25 0 0 1 2.899-2.125c1.124-.496 2.379-.744 3.765-.744 1.842 0 3.396.334 4.661 1.002 1.275.668 2.262 1.589 2.96 2.763.708 1.174 1.133 2.51 1.275 4.008h-4.554c-.051-.891-.228-1.645-.531-2.262a3.019 3.019 0 0 0-1.382-1.412c-.607-.324-1.417-.486-2.429-.486-.759 0-1.422.142-1.989.425-.566.283-1.042.714-1.427 1.29-.384.577-.673 1.306-.865 2.187-.182.87-.273 1.892-.273 3.066v1.564c0 1.143.086 2.15.258 3.02.172.861.435 1.59.789 2.187a3.68 3.68 0 0 0 1.397 1.336c.577.293 1.27.44 2.08.44.951 0 1.735-.152 2.353-.455a3.148 3.148 0 0 0 1.412-1.352c.334-.597.531-1.34.592-2.231Zm-14.423 3.78v3.552h-11.127v-3.552h11.127Zm-9.655-18.551v22.103h-4.554V4.946h4.554ZM147.368 19.17h-5.633v-3.552h5.633c.87 0 1.578-.142 2.125-.425.546-.293.946-.698 1.199-1.214.253-.516.38-1.098.38-1.746 0-.658-.127-1.27-.38-1.837a3.069 3.069 0 0 0-1.199-1.366c-.547-.344-1.255-.517-2.125-.517h-4.054V27.05h-4.554V4.946h8.608c1.73 0 3.213.314 4.448.941 1.244.618 2.196 1.473 2.854 2.566.657 1.093.986 2.343.986 3.75 0 1.427-.329 2.661-.986 3.704-.658 1.042-1.61 1.847-2.854 2.413-1.235.567-2.718.85-4.448.85Zm-18.111 8.183c-1.275 0-2.419-.202-3.431-.607-1.012-.415-1.872-.987-2.581-1.715a7.619 7.619 0 0 1-1.609-2.536 8.546 8.546 0 0 1-.562-3.097v-.607c0-1.245.177-2.383.532-3.416.354-1.032.86-1.928 1.518-2.687a6.665 6.665 0 0 1 2.429-1.745c.951-.415 2.024-.623 3.218-.623 1.164 0 2.196.192 3.097.577a6.065 6.065 0 0 1 2.262 1.64c.617.708 1.083 1.558 1.397 2.55.313.982.47 2.075.47 3.28v1.82h-13.055v-2.914h8.759v-.334c0-.607-.111-1.149-.334-1.624a2.571 2.571 0 0 0-.972-1.154c-.435-.284-.991-.425-1.669-.425-.577 0-1.073.126-1.488.38a2.933 2.933 0 0 0-1.017 1.062 5.767 5.767 0 0 0-.577 1.61 10.195 10.195 0 0 0-.182 2.003v.607c0 .658.091 1.265.273 1.822a4.42 4.42 0 0 0 .804 1.442c.355.405.78.719 1.276.942.506.222 1.078.334 1.715.334.79 0 1.523-.152 2.201-.456a4.763 4.763 0 0 0 1.777-1.412l2.125 2.308c-.344.496-.815.971-1.412 1.427-.587.455-1.295.83-2.125 1.123-.83.284-1.776.425-2.839.425Zm-14.271-13.147V27.05h-4.372V10.624h4.114l.258 3.582Zm4.949-3.688-.076 4.053c-.212-.03-.47-.056-.774-.076a7.857 7.857 0 0 0-.804-.046c-.618 0-1.154.081-1.61.243-.445.152-.819.38-1.123.683a2.978 2.978 0 0 0-.668 1.109 5.424 5.424 0 0 0-.243 1.487l-.88-.273c0-1.063.106-2.04.318-2.93.213-.9.522-1.685.926-2.353.415-.668.921-1.184 1.519-1.548.597-.365 1.28-.547 2.049-.547.243 0 .491.02.744.06.253.031.46.077.622.137Zm-27.568 8.486v-.32c0-1.204.172-2.312.516-3.324.344-1.022.845-1.907 1.503-2.656a6.735 6.735 0 0 1 2.429-1.746c.961-.425 2.064-.638 3.309-.638s2.353.213 3.325.638a6.712 6.712 0 0 1 2.444 1.745 7.562 7.562 0 0 1 1.518 2.657c.344 1.012.516 2.12.516 3.325v.319c0 1.194-.172 2.302-.516 3.324a7.746 7.746 0 0 1-1.518 2.657 6.74 6.74 0 0 1-2.429 1.746c-.962.415-2.065.622-3.31.622-1.244 0-2.353-.207-3.324-.622a6.88 6.88 0 0 1-2.444-1.746 7.883 7.883 0 0 1-1.503-2.657c-.344-1.022-.516-2.13-.516-3.324Zm4.372-.32v.32c0 .688.06 1.33.182 1.928a5.21 5.21 0 0 0 .577 1.579c.273.445.627.794 1.062 1.047.436.253.967.38 1.594.38.608 0 1.129-.127 1.564-.38a2.897 2.897 0 0 0 1.048-1.047 5.2 5.2 0 0 0 .576-1.58c.132-.597.198-1.24.198-1.927v-.32c0-.667-.066-1.295-.198-1.882a4.94 4.94 0 0 0-.592-1.578 2.94 2.94 0 0 0-1.047-1.094c-.435-.263-.962-.394-1.579-.394s-1.144.131-1.579.394a3.106 3.106 0 0 0-1.047 1.094 5.212 5.212 0 0 0-.577 1.578 9.286 9.286 0 0 0-.182 1.883Zm-13.101 5.254c.536 0 1.012-.102 1.427-.304a2.41 2.41 0 0 0 .971-.88c.243-.385.37-.836.38-1.352h4.114c-.01 1.154-.319 2.181-.926 3.082-.607.89-1.422 1.594-2.444 2.11-1.022.506-2.166.76-3.431.76-1.275 0-2.389-.213-3.34-.638a6.518 6.518 0 0 1-2.353-1.761 7.715 7.715 0 0 1-1.412-2.642 10.916 10.916 0 0 1-.47-3.249v-.44c0-1.164.156-2.247.47-3.249.314-1.012.785-1.892 1.412-2.641a6.443 6.443 0 0 1 2.353-1.776c.941-.425 2.044-.638 3.31-.638 1.346 0 2.525.258 3.537.774a5.768 5.768 0 0 1 2.398 2.217c.587.951.886 2.08.896 3.385h-4.114a3.424 3.424 0 0 0-.35-1.488 2.518 2.518 0 0 0-.94-1.062c-.405-.274-.906-.41-1.503-.41-.638 0-1.16.136-1.564.41a2.618 2.618 0 0 0-.941 1.093c-.223.455-.38.976-.47 1.563a13.103 13.103 0 0 0-.122 1.822v.44c0 .638.04 1.25.121 1.837.081.587.233 1.108.456 1.564.232.455.551.815.956 1.078.405.263.931.395 1.579.395ZM73.239 3.731V27.05h-4.387V3.731h4.387ZM66.24 23.497v3.552H54.475v-3.552H66.24ZM55.963 4.946v22.103h-4.555V4.946h4.555Zm8.744 9.002v3.462H54.475v-3.462h10.232Zm1.518-9.002v3.567h-11.75V4.946h11.75Z" fill="#fff"/><path fill-rule="evenodd" clip-rule="evenodd" d="M14.613 16.789V3.419A3.42 3.42 0 0 1 18.033 0H34.2a3.42 3.42 0 0 1 3.42 3.42v13.37a3.42 3.42 0 0 1-3.42 3.42H18.033a3.42 3.42 0 0 1-3.42-3.42Zm2.487 0c0 .515.418.932.933.932H34.2a.933.933 0 0 0 .933-.932V3.419a.933.933 0 0 0-.933-.932H18.033a.933.933 0 0 0-.933.933v13.369Z" fill="#fff"/><path fill-rule="evenodd" clip-rule="evenodd" d="M0 28.915v-13.37a3.42 3.42 0 0 1 3.42-3.42h16.167a3.42 3.42 0 0 1 3.42 3.42v13.37a3.42 3.42 0 0 1-3.42 3.42H3.42A3.42 3.42 0 0 1 0 28.914Zm2.487 0c0 .515.418.932.933.932h16.167a.933.933 0 0 0 .933-.932v-13.37a.933.933 0 0 0-.933-.932H3.42a.933.933 0 0 0-.933.933v13.369Z" fill="#fff"/><path fill-rule="evenodd" clip-rule="evenodd" d="M24.873 28.915v-3.42a3.42 3.42 0 0 1 3.42-3.42H34.2a3.42 3.42 0 0 1 3.42 3.42v3.42a3.42 3.42 0 0 1-3.42 3.42h-5.907a3.42 3.42 0 0 1-3.42-3.42Zm2.487 0c0 .515.418.932.933.932H34.2a.933.933 0 0 0 .933-.932v-3.42a.933.933 0 0 0-.933-.933h-5.907a.933.933 0 0 0-.933.933v3.42Z" fill="#63D23A"/></svg><svg viewBox="0 0 8 14" id="right" xmlns="http://www.w3.org/2000/svg"><path d="M.285 1.8C-.09 1.449-.09.837.262.46A.942.942 0 0 1 .944.178c.235 0 .47.094.658.258l6.116 5.88A.942.942 0 0 1 8 7a.942.942 0 0 1-.282.682l-6.116 5.88a.959.959 0 0 1-1.34-.024.959.959 0 0 1 .023-1.34L5.695 7 .285 1.8Z"/></svg><svg fill="none" viewBox="0 0 24 24" id="star" xmlns="http://www.w3.org/2000/svg"><path d="m12 2 3.09 6.26L22 9.27l-5 4.87 1.18 6.88L12 17.77l-6.18 3.25L7 14.14 2 9.27l6.91-1.01L12 2Z" stroke="#fff" stroke-width="2" stroke-linecap="round" stroke-linejoin="round"/></svg><svg viewBox="0 0 21 17" id="tg" xmlns="http://www.w3.org/2000/svg"><path d="M15.613 16.738c-.16-.086-1.277-.88-2.481-1.763-1.204-.883-2.243-1.605-2.31-1.605-.066 0-.69.539-1.384 1.197-.9.852-1.329 1.212-1.487 1.247-.123.026-.248.021-.28-.011-.031-.033.017-1.093.107-2.357.157-2.21.17-2.302.327-2.452.09-.085 1.995-1.796 4.233-3.802 2.239-2.006 4.144-3.726 4.234-3.823.148-.161.153-.187.052-.287-.09-.09-.149-.096-.32-.032-.114.043-2.621 1.59-5.57 3.436-2.948 1.847-5.4 3.358-5.447 3.358-.204 0-4.825-1.48-4.983-1.595-.236-.173-.352-.416-.286-.597.115-.313.622-.576 2.464-1.28 1.021-.39 3.325-1.272 5.12-1.961C19.024.028 19.099 0 19.429 0c.397 0 .681.244.801.688.1.365.155.07-1.225 6.538l-1.165 5.473c-.387 1.82-.753 3.43-.812 3.579-.24.598-.814.784-1.415.46Z"/></svg><svg viewBox="0 0 18 17" id="vk" xmlns="http://www.w3.org/2000/svg"><path fill-rule="evenodd" clip-rule="evenodd" d="M6.61 0h5.187c4.734 0 5.854 1.12 5.854 5.855v5.186c0 4.734-1.12 5.855-5.854 5.855H6.61c-4.733 0-5.854-1.121-5.854-5.855V5.855C.756 1.12 1.876 0 6.61 0Zm7.977 5.819c.084-.263 0-.453-.37-.453H12.99c-.31 0-.453.166-.536.345 0 0-.632 1.527-1.514 2.516-.287.286-.418.382-.573.382-.083 0-.19-.096-.19-.358V5.807c0-.31-.096-.453-.358-.453H7.886c-.19 0-.31.143-.31.286 0 .298.441.37.489 1.204v1.813c0 .393-.072.464-.227.464-.417 0-1.43-1.538-2.039-3.29-.119-.346-.238-.477-.548-.477H4.01c-.358 0-.417.167-.417.345 0 .322.417 1.944 1.943 4.09 1.014 1.467 2.456 2.254 3.756 2.254.787 0 .883-.179.883-.477v-1.11c0-.357.07-.416.321-.416.18 0 .501.095 1.229.799.834.834.977 1.216 1.442 1.216h1.228c.358 0 .525-.18.43-.525-.108-.346-.513-.846-1.038-1.443-.286-.333-.715-.703-.846-.882-.18-.238-.132-.334 0-.548-.012 0 1.49-2.123 1.645-2.838Z"/></svg><svg viewBox="0 0 19 15" id="yt" xmlns="http://www.w3.org/2000/svg"><path d="M18.368 2.805c-.214-.834-.844-1.489-1.644-1.71-1.45-.406-7.26-.406-7.26-.406s-5.813 0-7.262.405c-.8.222-1.43.877-1.644 1.71C.171 4.316.171 7.463.171 7.463s0 3.147.387 4.657c.215.83.844 1.46 1.644 1.682 1.45.405 7.261.405 7.261.405s5.812 0 7.261-.405c.8-.222 1.43-.852 1.644-1.682.388-1.51.388-4.657.388-4.657s0-3.15-.388-4.657ZM7.56 10.32V4.604l4.856 2.858L7.56 10.32Z"/></svg></svg>